<svg xmlns="http://www.w3.org/2000/svg" viewBox="0 0 640 640">
    <path color="currentColor" d="M529 71a24 24 0 0 0-33.9 0L447 119a24 24 0 0 0-5.5 8.5l-15.4 41-77.5 77.6c-45.1-29.4-99.3-30.2-131 1.6-11 11-18 24.6-21.4 39.6a41 41 0 0 1-36.1 31.6 101 101 0 0 0-67.3 28.6C48 392.3 56.4 473.3 111.5 528.4s136.1 63.6 180.9 18.8a100 100 0 0 0 28.6-67.3c.9-17 15-32.3 31.6-36.1a81 81 0 0 0 39.6-21.4c31.8-31.8 31-85.9 1.6-131l77.6-77.6 41-15.4a24 24 0 0 0 8.5-5.5l48-48a24 24 0 0 0 0-33.9zM272 320a48 48 0 1 1 0 96 48 48 0 0 1 0-96"/>
</svg>