<svg xmlns="http://www.w3.org/2000/svg" fill="none" viewBox="0 0 650 650">
  <g clip-path="url(#a)">
    <path fill="#F4EEE1" d="M650 0v650H0V0h650Z"/>
    <path fill="#4C6C5C" d="M579.4 469.8c-4.7-.8-3.8-6.6-2.2-9.7a269 269 0 0 0 29.4-109.3c2.6-41-4.2-81.7-19.6-119.5A276.6 276.6 0 0 0 410 71.8a191 191 0 0 0-13.3-3.6c-6.2-1.4-11.2-3.2-18-4.4A290.7 290.7 0 0 0 237.8 72 276 276 0 0 0 62.5 234.4a26.1 26.1 0 0 1-6.8 9.4 2 2 0 0 1-1 .5c-5.9.9-7.3-3.6-6-8.4 2-7.4 5.8-16.5 11.3-27.5a293 293 0 0 1 244.5-161 381 381 0 0 1 47.3.5c17.7 1.2 34.6 4 50.6 8.4 67.1 18.5 125.1 56.9 164.8 113.7a283 283 0 0 1 51.5 183.7 258.3 258.3 0 0 1-22 92.4c-3.3 7.2-6.7 13.4-10.3 18.8a12.6 12.6 0 0 1-6 4.8 2 2 0 0 1-1 .1Z"/>
    <path fill="#D2B184" d="M372.2 196.7a49.2 49.2 0 0 0 49.5-48.9A49 49 0 0 0 372.2 99a49.2 49.2 0 0 0-49.4 48.8c0 27 22.1 48.9 49.4 48.9Z"/>
    <path fill="#4C6C5C" d="M483 320.4c-1.8.7-3.4 1.6-4.9 3a81.4 81.4 0 0 1-42 21c-3.7.6-10.1 1.4-11.4-2.9-1-3.3 0-5.6 3.2-6.9l9.1-2.6a70.8 70.8 0 0 0 43.4-33 20.6 20.6 0 0 0 2.4-8.9.8.8 0 0 0-.8-.5c-.3 0-.7.3-1 .6a74.7 74.7 0 0 1-34.2 18.7c-4.2.9-19.2 2.1-16.2-7 .1-.4.3-.7.6-.9 1.6-1.2 2.6-1.9 3-2a78 78 0 0 0 33.3-15.6 38 38 0 0 0 13.8-19.1 9 9 0 0 0 0-4 1 1 0 0 0-.6-.8 1 1 0 0 0-1 .2 179 179 0 0 1-14 10.2 21 21 0 0 1-7.2 3.4c-4.9.6-15 2.6-14.1-5.7 0-.4.2-.8.5-1 1-1 2-1.7 3.4-2.4a78 78 0 0 0 26.3-17.6c5.3-5.5 8.4-11 7.7-18.3a.7.7 0 0 0-.5-.6.7.7 0 0 0-.7.1 49 49 0 0 1-19.4 12.4c-.8.2-2.7.2-5.6.1-4.9 0-6.2-6.9-2.3-8.8l8.3-4.1c9.1-5 20.1-15.3 21-27.2a.7.7 0 0 0-1.2-.7c-5.3 3.2-10.3 6.4-15.1 7.4a5 5 0 0 1-4.8-1.3c-.3-.2-.5-.6-.6-1-.5-3 .4-5.4 3-7a43.6 43.6 0 0 0 18.5-23.1c1.7-5.4 1-11.6 3.7-16.6.5-1 1.4-1.6 2.5-2 7.3-1.7 7.9 6.1 8.8 11.8 2 11.8 7.7 21 17 28.2 3 2.3 6 4 6.5 6.6 0 .4 0 .8-.2 1.1-1.3 2.3-3.5 3.4-6.4 3.3a53 53 0 0 1-13.7-7 1.1 1.1 0 0 0-1 .6c-.2.1-.2.3-.2.5-.3 4 3.5 11.1 6.6 14.6a63 63 0 0 0 16.5 13.2c1.8 1 4 1.7 6.4 2 .7.1 1.3.4 1.8.8s.9.9 1 1.5c.5 2.5-2.4 5-4.5 6.4-3 2.2-8.5-.3-11.9-1.8a54.9 54.9 0 0 1-14.8-10 1 1 0 0 0-1 .3 1 1 0 0 0 0 .5c-.5 17.8 22 31.3 36.5 36.5 5.2 1.8 3.6 8.6-1.7 8.8-3.4.2-7-.2-10.3-1.6a95.5 95.5 0 0 1-24.3-14.5h-.3a.6.6 0 0 0-.4.7c0 2.3.5 4.5 1.4 6.7 6.2 15.5 22.7 26 37.9 31.1a122 122 0 0 0 11 3.2c1.3.2 2.3.8 3.2 1.7.2.2.4.5.4.9 2.6 10.3-17 6-21.3 4.5a95.6 95.6 0 0 1-30.6-16.7 1 1 0 0 0-1.2.8c-.3 1.8-.2 3.6.1 5.4l.4 1a70.3 70.3 0 0 0 49.7 34.7c4 .6 10.6.2 11.3 4.7 1.6 10.2-15 7.6-20.4 6.4a75.6 75.6 0 0 1-27.9-12.3 153.1 153.1 0 0 1-13.7-10.8 1 1 0 0 0-1.2.8c-.2.6-.2 1.5-.2 2.7a1703.6 1703.6 0 0 1-.6 59.6c0 1.5-.6 2.3-2 2.4-4.8.3-9.9 1.9-10.3-3-1.6-20-1.4-40.4-1.1-60.7a1 1 0 0 0-.5-1 1 1 0 0 0-1 0ZM264.2 187.7a.5.5 0 0 0-.3-.5.5.5 0 0 0-.6 0 40 40 0 0 1-6.2 4.7l-18.3 11.3c-4.1 2.5-13.5 4.5-13.5-3 0-2.3.5-4.8 1.5-7.4 3.6-9.8 10.5-24.2 13.4-35.4a26.9 26.9 0 0 0-3.2-22.7 1.1 1.1 0 0 0-1.4.3l-4 4.6a3 3 0 0 1-1 .7c-4.1 2.1-7.6 0-11.2-2.2a1.6 1.6 0 0 0-1.7 0 19 19 0 0 0-4 4l-19.4 26.7a58.2 58.2 0 0 1-18.4 18.5 53 53 0 0 1-10 2.4 62.4 62.4 0 0 0-17.3 5.7 72.8 72.8 0 0 0-22.7 21.3 290 290 0 0 1-39.8 41.5 195.7 195.7 0 0 1-36 25.1 1.2 1.2 0 0 0-.1 1.2l.4.4A82.4 82.4 0 0 0 78 297.6c11.8 2.4 22.9 1 33.3-4.1 1.7-.8 3-1.4 4-1.6 3.2-.7 8-.8 7 4-.6 3.3-2.4 5.6-5.4 7.6a45.7 45.7 0 0 1-27.6 8.1c-2.4 0-4.8-.2-7.4-.4a2.3 2.3 0 0 0-2 1c-9 13.4-19 29.6-29.5 43.8a145.4 145.4 0 0 1-22.6 23.6c-4.2 3.5-9 6-14.6 7.6-4.7 1.3-5.6-3.9-3-6.5a362.5 362.5 0 0 0 55.2-71.8 1 1 0 0 0-.7-1.1 122 122 0 0 1-30.6-17.9c-4.2-3.3-3-8.4.5-11.6a41 41 0 0 1 7.5-5.7c4.6-2.7 11.8-6.5 17.6-10.5 17-12 32-26 45.6-42.1 7.1-8.4 11.3-13.3 12.4-14.8a70.1 70.1 0 0 1 33.9-24.6c4.8-1.4 10.1-2.8 16-4.2 4.7-1.2 8.6-4.8 12.2-9.6a1655 1655 0 0 1 22.1-28.7 110 110 0 0 1 12.5-13.4c2.5-3.3 4.8-6 6.9-8.2 5.1-5.3 13-7.4 18.9-2.2a52.5 52.5 0 0 1 12 51c-1.6 6-4.3 12.8-3.5 15.7a.4.4 0 0 0 .3.2h.3a43 43 0 0 0 12.9-10.4c1-1.2 2.5-2 4.7-2.6 9-2.5 11 8.6 11 15a66.1 66.1 0 0 1-13 38.5 182 182 0 0 0-16.7 28.5 71.2 71.2 0 0 0-4.6 48.1l5.5 21.8c1 3 1.4 7 1.6 12.4.2 11.4-.3 21.5-1.4 30.3-3.2 23-11.3 45.7-24.6 65a78.7 78.7 0 0 1-7.2 8.3c-.7.7-1.3 1.7-1.7 2.7-6.8 19.7-18 39.2-33.6 58.4a274 274 0 0 0-24.9 37.4c-4.3 7.7-8.3 17.5-11.5 24.6-1.5 3.4-4.3 6-7.9 4-4.5-2.4-3.6-8-2.2-12.5 6.3-20 19.3-37.8 31.3-54.7 7.4-10.4 13.3-17.8 18.7-26.5a171.4 171.4 0 0 0 21-48.8c1.8-7.3 2.8-15.3 3.4-22.7.3-2.9 2.8-4.7 5.5-3.3 2.3 1.2 3 5.3 3.6 8.3a1.6 1.6 0 0 0 1.8 1.2c.3 0 .5-.2.7-.3.7-.5 1.3-1.4 1.8-2.7 3.5-8.3 6.9-18.6 10-31 4-15.2 4.6-30.6 2.1-46.3-1.2-7.6-4.2-17.5-5.8-25a84.6 84.6 0 0 1 1-39.6 143 143 0 0 1 21.6-42.8c6-9 11.4-18.3 11.8-28.8Z"/>
    <path fill="#4C6C5C" d="M166 198c2 .4 4.3 2.7 3.2 5a46.5 46.5 0 0 1-11.4 14.6c-2 1.7-5.7 3.8-7.6 1.6-2-2.3-.5-6.4 1-8.7 4.5-6.8 7-13.6 14.8-12.4Zm-53.1 58.1c1.9-2.8 5.7-2.4 6.6 1 2.4 8.8-3.6 17.6-10.5 22.4-5.6 3.9-12 6-19.3 6.6-2.6.2-4.9 0-6.7-.5l-1-.5c-3.2-3.2-.5-7 2.9-8.5 5.1-2.1 8-3.4 8.9-3.9a50 50 0 0 0 19-16.6Zm67.3 73.7a.7.7 0 0 0-.5.1.7.7 0 0 0-.3.5c-.4 2.9-1 6-4.7 6-5.5 0-10-2.8-14.7-6a53.8 53.8 0 0 1-24.7-41.8c-.2-4.6-.3-8.6 3.6-11.4 3.1-2.2 6.2.4 6.8 3.6l2 9.7a47.8 47.8 0 0 0 18.6 28.3 1 1 0 0 0 1-.5v-.5c0-4.4-.3-8.3 1.7-11.8 1.9-3.3 5.5-4.6 7.8-.8l4 6.3a42.2 42.2 0 0 0 16.7 15 .7.7 0 0 0 .8-.6 7 7 0 0 0-.2-3 87.7 87.7 0 0 1-2.2-32.7c1-6.4 10-8.1 10.6-.7.6 6.5 1 11.3 1.5 14.3a80.7 80.7 0 0 0 8.3 26c.8 1.5 1.3 3 1.3 4.1.3 4.5-5.3 6.2-8.8 6.4-10.2.6-19-3.9-27.4-10-.3-.3-.8-.4-1.2-.5Z"/>
    <path fill="#7A9C9D" fill-rule="evenodd" d="M506.4 334.7h.2c5.2 3.6 9.6 6.4 13.3 8.3a75 75 0 0 0 39.3 8.4c.5 0 3.4.3 5.9 1 1.6.8.8.6 5.6 2.8a93 93 0 0 1 12.6 6.8c3.3 2.1 5.5 4.4 6.3 8.3.4.9.3 1.7.1 2.6a1.3 1.3 0 0 1-.6 1c-2.4 1.5-6.6.3-9.1-.9a95 95 0 0 0-13.9-5.4c-10.2-3-16.3-4.7-18.2-5l-9.2-1.6-8.6-1.3c-3.6-.3-7.7-1-11.3-1.4-4.9-.6-9 0-11.6-3.3-.6-.7-.6-3.1-.8-7.2l-.2-8.7a64.3 64.3 0 0 0 0-4.3l.2-.1Z" clip-rule="evenodd"/>
    <path fill="#7A9C9D" d="M336 242.2c8.8-8.4 21.3-18.5 34-15.5a45 45 0 0 1 13.5 7.3 424 424 0 0 1 19.5 14.6l5.8 4 17.3 11.8c2.7 2 7 4 8.8 6.2 3.6 4 6.7 8.5 11.2 11.6a2.6 2.6 0 0 1 1 3l-.6 1c-.7.7-1.9 1.3-3.6 2L434 291c-7.8 2.6-13.7 6-11.4 15.2 1.3 5 5.8 8.8 10.8 10 2.2.5 5.4.7 9.6.6a43 43 0 0 0 9.9-1v.2l-.1.1c-2.3 1-3.4 2.5-5.7 3.5-3 1.3-7.3 3.3-11.1 4.4a116 116 0 0 0-14 5c-5 2-7.2 5.7-6.6 11l.1.6c1.4 6.7 5.5 10.4 12.3 11 4 .4 4.8.5 10.9 0l6.2-1.3.4-.1a89 89 0 0 0 30.7-15h.1v.2l-.3 14.9c0 .5-.2 1-.4 1.7-.8 3.2-1 3-6.3 3.3-7.7.2-17 0-29 .2-4.1 0-7 .3-10.7.3h-9.8c-46.9.5-93.4 0-140.2.3H264c-2.5 0-4.2 0-5.2-2.1l-.3-2 .2-20.7c0-2-.6-6-1.8-12l-.5-2.6c-1.5-5-2.6-10-3.4-15.1-.7-3.2.3-3.7 1.9-4.8a599 599 0 0 0 23.2-18.3c6.5-5.4 13.6-6.3 22-7a18.2 18.2 0 0 0 7.8-2.8c3.6-3.3 13-12.1 28-26.6Z"/>
    <path fill="#4C6C5C" d="M359.2 483.8a.8.8 0 0 0-1.3-.6 41.2 41.2 0 0 0-9.3 10.8c-3 5.2-5 8.6-6.1 10.2a38 38 0 0 1-28.4 16.9c-9.4 1-17-4.5-16-14.4.6-4.6 1.6-9 3.1-13a143.3 143.3 0 0 1 17-31.7 1 1 0 0 0-.6-1.1c-4-2-8.6-4.3-13.6-7.1-16-9.2-36.1-28-32-48.7 1.4-7.6 8.2-11.7 15.2-14.3a24 24 0 0 1 9.3-1.4c12.6.2 23.3 1 33.2 7.4a68.7 68.7 0 0 1 14.8 13.1 5 5 0 0 0 3 1.6 1.3 1.3 0 0 0 1-.3c3.5-2.8 7.3-6 11.1-9.8 1.3-1.2 4.6-4 10-8a76.9 76.9 0 0 1 56.9-17A97 97 0 0 1 452 383a197.7 197.7 0 0 1 38.1 21 166.6 166.6 0 0 1 29.7 27l12.5 15c2.5 3 6.6 7.9 10.3 8.8 6.2 1.6 13.9 6.5 9.7 13.7-1.6 2.7-5.7 6-7.8 8.4a1.6 1.6 0 0 0 .2 2.4c2.3 1.7 4.6 3.3 7.1 4.6 6.1 3.3 12 6.1 17.7 8.4 2.5 1 5.8 3.4 6.2 6.5.2 2.3-.1 4.1-1 5.4a47.6 47.6 0 0 1-57.2 12 62 62 0 0 1-18.4-12.8c-2.2-2.3-4.5-3-8-2.5-19.3 3-38.7 1.3-59.1-.9a43.8 43.8 0 0 1-19.2-6.6.7.7 0 0 0-.8.6c-.4 3 2 8.4 3.6 12.1 1.7 3.8 3.1 6.9 4.4 9.4 2.2 4.2 3.4 7.4 3.6 9.5.6 5.5-1.3 13-6.3 16-4 2.5-10 3-14.5 2.2a50.9 50.9 0 0 1-33.7-24.9 63.3 63.3 0 0 1-7.4-16c-1.7-5.9-1.8-10.8-2.5-18.5Z"/>
    <path fill="#F4EEE1" d="M402.7 398.1c-3-5.5.8-7.6 5.6-8.5a75.6 75.6 0 0 1 36.5 4 2 2 0 0 1 1.2 2.2c-.7 4.9-2 9.4-3.7 13.6a3.3 3.3 0 0 1-3 2l-14.8.9c-10.2.6-17.2-5.3-21.8-14.2Zm-12.2 33.4c-1.6 1.3-3.5 2.2-5 .6a112 112 0 0 1-14.4-19.2c-.6-1-.7-2-.3-3l.6-.7a62.6 62.6 0 0 1 19.1-12.2l.4.2 13 14.8a3.1 3.1 0 0 1 .6 3.1c-1.4 3.8-4.8 7.4-7.8 10.8a54.4 54.4 0 0 1-6.2 5.6Zm68.3-31.6c10 3.6 18.5 9.3 25.8 17 3.3 3.7 5 8 4.8 13.1 0 .4 0 .8-.2 1.2-2.4 5.3-7.7 5-12.8 4.1a92 92 0 0 1-13-3c-4.2-1.2-11-4.5-13-8.4-1.5-2.6-2-5.5-1.7-8.8.5-4.6 2.5-15.6 9.1-15.4.4 0 .7 0 1 .2Zm-102.4 51a.8.8 0 0 1-.4.9h-.3c-20.2 1.5-43-4.2-57.7-18.6a1 1 0 0 1 .2-1.5l2.7-1.6a1 1 0 0 0 .5-.9c-.1-3-1.3-5-3.6-6-5.2-2-12.4-4.5-14-10.5-1-4.3 1-7 5.8-8.4l7-1.6c11.8-2.6 22.5 0 31.3 8.7l8.5 9.4c3.5 4 6.8 6.5 10.4 9.8a20 20 0 0 1 4.3 6.2c2.5 5.2 4.3 9.9 5.3 14Z"/>
    <path fill="#F4EEE1" d="M539.8 464.3c0 .3-.2.6-.6 1.1-7.5 9.5-18.5 13.6-30.3 18.5-4.4 1.9-9 3.3-13.8 4.2a159 159 0 0 1-79.7-7.2 88.7 88.7 0 0 1-50.6-43.6c-3.2-5.9-7.4-12.3-7.2-18a.8.8 0 0 1 .8-.8 40 40 0 0 1 8 7 5115 5115 0 0 0 14.1 16c18.3 19.7 41 30.3 67.4 35.4 29 5.7 57.5 1.6 85.3-12.4 2-1 3.9-1.4 5.8-1.3a1 1 0 0 1 .8 1.1Z"/>
    <path fill="#F4EEE1" d="M437.7 463.1c-2.7.5-6-.6-9-1.5a91.3 91.3 0 0 1-24-11.2c-4.5-3-10-6.2-6.5-12.5a61 61 0 0 1 4.2-7.2c8.6-11.3 23.9-14.3 34.8-5a20 20 0 0 1 6.9 21 84 84 0 0 1-4.8 15.2 2.1 2.1 0 0 1-1.6 1.2Zm86.1-7.1a1 1 0 0 1 .2.9 1.1 1.1 0 0 1-.5.8c-4.7 3-10 5.2-15.8 6.6-1.8.4-3 0-3.7-1.3-2.8-6-4.7-11.8-5.8-17.4-.8-4.8-.4-8.8.8-13.4a1.6 1.6 0 0 1 1.8-1.2c3.3.7 6 2.4 8.2 5.3l14.8 19.7Zm-30.1 9.6a1.5 1.5 0 0 1-1.1 1.6 86 86 0 0 1-42.4-.9 1.5 1.5 0 0 1-1-1.7c.6-4.2 1.3-8 2.1-11.5 1.7-7.3 9.3-11.6 16-11.4a60 60 0 0 1 19.3 3.7c4.4 1.5 6.6 15.9 7 20.3Zm-180.9 40.8c0-2.5.5-5.3 1.5-8.3 2.8-8.2 8.2-18 16.2-29.6 2-2.9 4.7-4 8-3.5 6.5 1.1 13.7 2 15 3.3a1.5 1.5 0 0 1-.2 2.1L344 478a40.9 40.9 0 0 0-8.6 11.6c-5 9.3-10.8 16.4-21.6 17.7a.9.9 0 0 1-.9-.5v-.4Zm65.6-29.2c1-.3 2.2 0 3.6 1 5 4 10.4 7.3 16 9.7a1.5 1.5 0 0 1 1 1.6c-.5 2.2-.3 4.9.3 8 1.8 9 4.8 15.1 9.4 25.3a16 16 0 0 1 1.5 6.1 1.4 1.4 0 0 1-1.4 1.4c-14.6-.8-24.3-11-30.2-23.4a35 35 0 0 1-.8-29.3l.6-.4Zm134.3 18.7c4.9-1.4 11.3-5.1 19.8-9.4 2-1.1 4.5.3 6.4 1.8a111.8 111.8 0 0 0 18.8 12.7 1.2 1.2 0 0 1-.5 1.7c-14.3 8.3-27.9 8-40.9-1a12.2 12.2 0 0 1-4.1-4.6.9.9 0 0 1 .5-1.2Z"/>
    <path fill="#4C6C5C" d="M309.6 418c3-.9 5-3.4 4.5-5.7-.6-2.3-3.6-3.6-6.7-2.8-3 .8-5 3.4-4.4 5.7.6 2.3 3.6 3.5 6.6 2.7Z"/>
    <path fill="#7A9C9D" d="M190.8 520c1.5-.3 0 0 2.3-1.2a14 14 0 0 1 3.7-1.8 215.8 215.8 0 0 1 73.2-13c7 1 11 1.5 20 4.9a6 6 0 0 1 4 2.6 1 1 0 0 1-.2 1.5 11.7 11.7 0 0 1-6 2.7c-25.2 3.3-9.3-11.7-73 6a85 85 0 0 1-19.6 3c-1.8 0-3.5-.3-5-1a2 2 0 0 1-1-1v-1.4c.3-.6.8-1 1.6-1.2Zm-6.3 36c6.2-3 13.8-6 22.8-8.9 15-4.9 30.1-5.9 45.5-3 6.1 1.1 13.7 3.4 16.7 3.9 2 .5 4 .6 6.3.6h11.6a116 116 0 0 0 23.2-3.9c5.1-1.2 9-2 11.6-2.2a63.4 63.4 0 0 1 35.6 5.8c1.4.5 3.4 1.5 6.2 2.8 7 3.4 13.4 5.7 19.5 6.9 11 2 22.4 2 34.2-.2l16.7-3.1c7.6-1.6 14.5-2 22.4-2.6a32 32 0 0 1 6.9.1c2.6.3 6.2.3 9 .8 7.6 1 15.3 3 22.9 5.6 1.4.5 2.2 1.4 2.5 2.7 0 .3 0 .7-.2 1-3.1 5-9 4.3-14 3-8-2-17.2-4.2-26.3-4-6.6.2-12.6.8-18 1.9-10.5 2-18.5 4-28.4 5a84.1 84.1 0 0 1-49.7-8c-9-4-14.7-6.2-17.3-7a50 50 0 0 0-20.5-1.5c-7.8 1.1-15.5 3.7-23.5 5.1a97.5 97.5 0 0 1-32 .7c-2.9-.3-7.5-1.1-13.8-2.6a82.6 82.6 0 0 0-40.4.3 199 199 0 0 0-22.6 7 16 16 0 0 1-8.2 1.4c-1.7-.3-2.5-1-2.2-2.4.3-1.6.4-2.2 1-3.2.5-.8 1.3-1.4 2.5-2Zm29.9 29.1a10 10 0 0 1 4.6-3.9 67.8 67.8 0 0 1 18-5c5-.7 13 0 14 .1l2 .3c2 .6 3.8.7 6.2 1.4 6 1.6 10.4 2.6 13.5 3a77.5 77.5 0 0 0 25.7-.2l18.1-3.4a79.9 79.9 0 0 1 23.3.2 104.9 104.9 0 0 1 25.8 8.1c6.8 3 14.3 4.5 22.3 4.3 7.6-.1 15-1 22-2.3a109 109 0 0 1 40-2.3c1 .2 1.9.8 2.5 1.6l.2.5c0 .2.2 1-.1 1.5-1.7 3.3-4.2 4-8.3 3.9l-11 .5c-7.6.3-18.1 3-23.2 4a85.5 85.5 0 0 1-35 .8c-4.1-.8-10.4-2.8-18.8-6a106 106 0 0 0-24.1-6 31 31 0 0 0-8.7 0c-3.9.3-7.1.4-11.5 1.4-5 1.2-9.2 2-12.4 2.7-3.2.7-4.2.3-6.5.7-3.8.6-12 .5-14 .5s-4.5-.5-5.5-.6c-1 0-4-.5-5.5-.9-1.9-.5-9-2.2-16.9-3.7a45.4 45.4 0 0 0-18.1-.3l-11.4 2.5c-2.6.5-7.3 1.1-7.4-2.3 0-.3 0-.7.3-1Z"/>
  </g>
  <defs>
    <clipPath id="a">
      <path fill="#fff" d="M0 0h650v650H0z"/>
    </clipPath>
  </defs>
</svg>
